<svg width="16" height="17" viewBox="0 0 16 17" fill="none" xmlns="http://www.w3.org/2000/svg">
    <path d="M15.3606 8.32586C15.3606 8.90848 14.9194 9.37919 14.3367 9.37919H4.23902L7.70917 12.8486C8.12071 13.2601 8.12071 13.9266 7.70917 14.3381C7.50175 14.5438 7.23177 14.6459 6.9618 14.6459C6.69183 14.6459 6.42251 14.543 6.21707 14.3373L0.949284 9.0706C0.537739 8.65914 0.537739 7.99258 0.949284 7.58112L6.21707 2.31445C6.62861 1.90299 7.29532 1.90299 7.70686 2.31445C8.11841 2.72591 8.11841 3.39247 7.70686 3.80393L4.23902 7.27253H14.3367C14.9194 7.27253 15.3606 7.74323 15.3606 8.32586Z" fill="currentColor"/>
</svg>
