<svg width="16" height="17" viewBox="0 0 16 17" fill="none" xmlns="http://www.w3.org/2000/svg">
    <path d="M15.209 9.2303L9.89449 14.4966C9.68855 14.704 9.41618 14.806 9.14382 14.806C8.87145 14.806 8.59974 14.7032 8.39247 14.4974C7.97728 14.086 7.97728 13.4195 8.39247 13.0081L11.8941 9.53969H1.70348C1.11655 9.53969 0.640625 9.06901 0.640625 8.48643C0.640625 7.90384 1.11655 7.43316 1.70348 7.43316H11.8941L8.39314 3.96397C7.97794 3.55254 7.97794 2.88602 8.39314 2.47459C8.80834 2.06316 9.48096 2.06316 9.89615 2.47459L15.2107 7.74091C15.6242 8.15399 15.6242 8.81886 15.209 9.2303Z" fill="currentColor"/>
</svg>
