<svg width="18" height="18" viewBox="0 0 18 18" fill="none" xmlns="http://www.w3.org/2000/svg">
    <path fill-rule="evenodd" clip-rule="evenodd" d="M1.06066 1.06066C1.64645 0.474874 2.5962 0.474874 3.18198 1.06066L15.9099 13.7886C16.4957 14.3744 16.4957 15.3241 15.9099 15.9099C15.3241 16.4957 14.3744 16.4957 13.7886 15.9099L1.06066 3.18198C0.474876 2.59619 0.474876 1.64645 1.06066 1.06066Z" fill="currentColor"/>
    <path fill-rule="evenodd" clip-rule="evenodd" d="M1.18175 16.0607C0.595967 15.4749 0.595967 14.5251 1.18175 13.9393L13.9097 1.21142C14.4955 0.625632 15.4452 0.625632 16.031 1.21142C16.6168 1.7972 16.6168 2.74695 16.031 3.33274L3.30307 16.0607C2.71729 16.6464 1.76754 16.6464 1.18175 16.0607Z" fill="currentColor"/>
</svg>
