<svg width="16" height="16" viewBox="0 0 16 16" fill="none" xmlns="http://www.w3.org/2000/svg">
    <path
        d="M12.7143 7.53125C12.4693 7.53125 12.2423 7.605 12.0476 7.72657C11.9348 7.11836 11.4152 6.65625 10.7857 6.65625C10.3202 6.65625 9.91625 6.91137 9.69045 7.2898C9.55625 6.68086 9.05804 6.21875 8.42857 6.21875C8.09777 6.21875 7.79938 6.34992 7.57143 6.55945V2.5C7.57143 1.89598 7.09196 1.40625 6.52411 1.40625C5.90804 1.40625 5.42857 1.89598 5.42857 2.5V11.3238L3.92857 9.28125C3.7183 8.99414 3.39634 8.84375 3.07063 8.84375C2.50223 8.84375 2 9.31023 2 9.93805C2 10.1665 2.06986 10.3969 2.21442 10.5938L4.65781 13.9187C5.34286 14.8512 6.43304 15.4062 7.57143 15.4062H10.1429C12.2696 15.4062 14 13.6398 14 11.4688V8.84375C14 8.11914 13.4241 7.53125 12.7143 7.53125Z"
        fill="#ACCAFF" />
</svg>
