<svg width="33" height="33" viewBox="0 0 33 33" fill="none" xmlns="http://www.w3.org/2000/svg">
    <g clip-path="url(#clip0_274_1186)">
        <path d="M27.8801 27.5759C21.6317 33.8243 11.5011 33.8243 5.2527 27.5759C-0.995691 21.3275 -0.99569 11.1969 5.2527 4.94847C11.5011 -1.29991 21.6317 -1.29991 27.8801 4.94847C34.1285 11.1969 34.1285 21.3275 27.8801 27.5759Z" fill="currentColor"/>
        <path d="M22.2013 21.3883C21.8393 21.3849 21.5095 21.2316 21.2678 20.99C21.0262 20.7483 20.8742 20.4184 20.8682 20.0566L20.7614 13.9534L12.0309 22.684C11.5273 23.1875 10.7233 23.147 10.2292 22.6529C9.73508 22.1588 9.64126 21.3021 10.1451 20.7982L18.8757 12.0676L12.7735 11.9604C12.0493 11.9479 11.4527 11.3513 11.4402 10.6271C11.4277 9.90301 12.0042 9.32657 12.7283 9.33905L21.9972 9.49884C22.7214 9.51132 23.318 10.108 23.3305 10.8321L23.4903 20.1011C23.5005 20.8257 22.9255 21.4008 22.2013 21.3883Z" fill="white"/>
    </g>
    <defs>
        <clipPath id="clip0_274_1186">
            <rect width="32" height="32" fill="white" transform="translate(0.710938 0.40625)"/>
        </clipPath>
    </defs>
</svg>
