<svg width="22" height="21" viewBox="0 0 22 21" fill="none" xmlns="http://www.w3.org/2000/svg">
<path d="M21.3359 12.8756V21H16.8356V13.4184C16.8356 11.5153 16.1846 10.2165 14.555 10.2165C13.3118 10.2165 12.5705 11.0911 12.245 11.9394C12.1274 12.2427 12.0959 12.6646 12.0959 13.0865V21H7.59354C7.59354 21 7.65444 8.16178 7.59354 6.83225H12.0959V8.83864L12.0665 8.88479H12.0959V8.83864C12.6944 7.8717 13.7612 6.49822 16.1531 6.49822C19.1141 6.49822 21.3359 8.52438 21.3359 12.8756ZM2.88324 0C1.34394 0 0.335938 1.05923 0.335938 2.4481C0.335938 3.81059 1.31454 4.89839 2.82444 4.89839H2.85384C4.42464 4.89839 5.40114 3.80839 5.40114 2.4481C5.37174 1.05923 4.42464 0 2.88324 0ZM0.602637 21H5.10504V6.83225H0.602637V21Z" fill="#ACCAFF"/>
</svg>
