<svg width="24" height="25" viewBox="0 0 24 25" fill="none" xmlns="http://www.w3.org/2000/svg">
    <path d="M22.415 13.9806C23.2818 13.7329 23.7772 12.8661 23.7772 11.9992C23.7772 11.1323 23.2818 10.3893 22.415 10.0177L21.7958 9.77007L22.415 9.52239C23.2818 9.27471 23.7772 8.40783 23.7772 7.54095C23.7772 6.67408 23.2818 5.93104 22.415 5.55952L12.6316 2.09201C12.1363 1.84433 11.6409 1.84433 11.1456 2.09201L1.2384 5.55952C0.495358 5.93104 0 6.79791 0 7.66479C0 8.53167 0.495358 9.27471 1.36224 9.64623L1.98143 9.77007L1.36224 10.0177C0.495358 10.2654 0 11.1323 0 11.9992C0 12.8661 0.495358 13.6091 1.36224 13.9806L1.98143 14.2283L1.36224 14.476C0.495358 14.7236 0 15.5905 0 16.4574C0 17.3243 0.495358 18.0673 1.36224 18.4388L11.1456 21.9063C11.3932 21.9063 11.6409 21.9063 11.8886 21.9063C12.1363 21.9063 12.384 21.9063 12.5078 21.7825L22.415 18.315C23.2818 18.0673 23.7772 17.2004 23.7772 16.3336C23.7772 15.4667 23.2818 14.7236 22.415 14.3521L21.7958 14.2283L22.415 13.9806ZM11.8886 4.5688L20.5574 7.66479L11.8886 10.7608L3.21983 7.66479L11.8886 4.5688ZM11.8886 19.4296L3.21983 16.3336L5.69662 15.4667L11.1456 17.3243C11.2694 17.3243 11.3932 17.4481 11.5171 17.4481H11.6409C11.7648 17.4481 11.8886 17.4481 11.8886 17.4481C12.1363 17.4481 12.384 17.4481 12.5078 17.3243L17.9567 15.3428L20.4335 16.2097L11.8886 19.4296ZM11.8886 15.0952L3.21983 11.9992L5.69662 11.1323L11.1456 12.9899C11.2694 12.9899 11.3932 13.1137 11.5171 13.1137H11.6409C11.7648 13.1137 11.8886 13.1137 11.8886 13.1137C12.1363 13.1137 12.384 13.1137 12.5078 12.9899L17.9567 11.0085L20.4335 11.8753L11.8886 15.0952Z" fill="#ACCAFF"/>
</svg>
