<svg width="24" height="25" viewBox="0 0 24 25" fill="none" xmlns="http://www.w3.org/2000/svg">
<path fill-rule="evenodd" clip-rule="evenodd" d="M16.2173 14.1757C15.9747 14.0549 14.7819 13.4709 14.5596 13.3902C14.3372 13.3096 14.1755 13.2694 14.0138 13.5111C13.852 13.7527 13.3871 14.2966 13.2456 14.4577C13.1041 14.6189 12.9625 14.6391 12.72 14.5182C12.4774 14.3974 11.6957 14.1424 10.769 13.3198C10.0479 12.6796 9.56093 11.889 9.41945 11.6472C9.27792 11.4055 9.40433 11.2749 9.52578 11.1545C9.63497 11.0463 9.76843 10.8725 9.88969 10.7315C10.011 10.5906 10.0514 10.4898 10.1323 10.3287C10.2132 10.1676 10.1727 10.0266 10.112 9.90576C10.0514 9.78492 9.56627 8.59649 9.36411 8.11299C9.16716 7.64226 8.96717 7.70602 8.81826 7.69855C8.67692 7.69158 8.51498 7.6901 8.35331 7.6901C8.19159 7.6901 7.92872 7.75052 7.70634 7.99215C7.48399 8.23387 6.85729 8.81804 6.85729 10.0064C6.85729 11.1948 7.72656 12.3428 7.84787 12.504C7.96917 12.6652 9.55853 15.1038 11.9922 16.1496C12.571 16.3984 13.0229 16.547 13.3752 16.6582C13.9564 16.842 14.4852 16.8161 14.9032 16.7539C15.3693 16.6846 16.3386 16.1698 16.5408 15.6059C16.7429 15.0418 16.7429 14.5584 16.6822 14.4577C16.6216 14.357 16.4599 14.2966 16.2173 14.1757ZM11.7908 20.1908H11.7875C10.3394 20.1902 8.91915 19.803 7.68014 19.0713L7.38543 18.8973L4.33116 19.6946L5.14639 16.7309L4.95455 16.4271C4.14671 15.1484 3.72004 13.6705 3.72068 12.1529C3.72247 7.72482 7.34266 4.12226 11.794 4.12226C13.9495 4.12298 15.9756 4.95947 17.4993 6.47756C19.0229 7.9956 19.8615 10.0134 19.8607 12.1594C19.8588 16.5879 16.2387 20.1908 11.7908 20.1908ZM18.6589 5.32403C16.8258 3.4976 14.388 2.4913 11.7907 2.49023C6.43907 2.49023 2.08352 6.82468 2.08135 12.1523C2.08067 13.8554 2.52772 15.5176 3.37742 16.9831L2 21.9902L7.14697 20.6465C8.56514 21.4164 10.1618 21.8221 11.7868 21.8227H11.7908C17.1419 21.8227 21.4978 17.4878 21.5 12.16C21.501 9.57816 20.492 7.15046 18.6589 5.32403Z" fill="#ACCAFF"/>
</svg>
